<svg width="805" height="782" viewBox="0 0 805 782" fill="none" xmlns="http://www.w3.org/2000/svg">
<rect width="805" height="782" fill="#F5F5F5"/>
<g id="undraw_designer_re_5v95 1" clip-path="url(#clip0_0_1)">
<path id="krug" d="M756.855 215.792C749.324 202.206 740.968 189.093 731.834 176.527C725.434 167.711 718.672 159.19 711.546 150.962H711.529C698.636 136.068 684.614 122.19 669.589 109.451C666.514 106.839 663.397 104.281 660.238 101.776C631.729 79.0949 600.113 60.6211 566.357 46.9188L566.656 96.2461L569.886 658.549H289.922L274.177 97.307L275.35 48.7675C138.093 106.495 41.7176 242.223 41.7176 400.469C41.692 433.132 45.8592 465.662 54.1168 497.264C57.6046 510.623 61.8273 523.779 66.7655 536.672C68.5482 541.352 70.429 545.99 72.4078 550.586C73.3616 552.824 74.3333 555.043 75.3405 557.254C76.633 560.142 77.979 563.021 79.3607 565.865C80.4303 568.102 81.5297 570.325 82.6588 572.532C84.1117 575.429 85.6122 578.303 87.1603 581.152C88.3547 583.389 89.5848 585.609 90.8328 587.819C110.966 623.431 136.675 655.587 166.983 683.064C175.621 690.899 184.609 698.327 193.948 705.348C260.025 755 340.442 781.847 423.095 781.847C505.748 781.847 586.165 755 652.243 705.348C657.324 701.533 662.3 697.59 667.173 693.52C670.409 690.828 673.591 688.085 676.72 685.292C677.549 684.552 678.378 683.812 679.198 683.064C707.141 657.733 731.188 628.414 750.562 596.056C757.677 584.193 764.129 571.944 769.887 559.367C771.412 556.051 772.888 552.705 774.317 549.33C780.896 533.854 786.429 517.955 790.879 501.739C791.566 499.234 792.228 496.72 792.867 494.198V494.189C792.974 493.752 793.09 493.306 793.197 492.87C793.857 490.213 794.489 487.539 795.096 484.865V484.856C797.057 476.236 798.712 467.513 800.061 458.685C800.23 457.553 800.399 456.421 800.56 455.289C800.622 454.879 800.685 454.469 800.729 454.059V454.05C801.692 447.231 802.473 440.361 803.073 433.441C804 422.575 804.467 411.584 804.473 400.469C804.574 335.861 788.184 272.296 756.855 215.792V215.792Z" fill="#F2F2F2"/>
<path id="sunce" d="M389.439 130.818C418.702 130.818 442.424 107.096 442.424 77.8331C442.424 48.5701 418.702 24.8477 389.439 24.8477C360.176 24.8477 336.454 48.5701 336.454 77.8331C336.454 107.096 360.176 130.818 389.439 130.818Z" fill="#FF6584"/>
<g id="poazadijna">
<g id="OBLACI">
<path id="Vector" d="M551.669 75.0681C546.895 70.0245 541.854 65.2398 536.569 60.7347C526.247 51.9814 514.819 44.5383 502.081 39.8496C497.286 38.0786 492.33 36.7741 487.284 35.9543C486.678 35.8563 486.081 35.7582 485.475 35.6779C485.43 35.6735 485.386 35.6735 485.341 35.6779C485.248 35.6515 485.152 35.6336 485.056 35.6244C483.817 35.464 482.578 35.3392 481.33 35.2501C474.609 34.8033 467.86 35.4109 461.327 37.0507C457.537 38.007 453.838 39.2956 450.274 40.9014C446.704 42.6495 443.242 44.6111 439.907 46.7756C438.117 47.8633 436.272 48.86 434.381 49.7617C428.859 52.378 423.014 54.2485 416.999 55.324C412.937 56.0527 408.824 56.4581 404.698 56.5363C401.114 56.6076 397.736 56.7324 394.34 58.0249C390.715 59.3867 387.46 61.5776 384.833 64.4224C382.207 67.2672 380.282 70.687 379.213 74.4085C379.129 74.7389 379.153 75.0877 379.281 75.4037C379.409 75.7197 379.635 75.9863 379.926 76.1645C380.844 76.8241 381.736 77.5729 382.707 78.1612C383.565 78.5525 384.48 78.8023 385.417 78.901C386.95 79.2219 388.487 79.534 390.026 79.837C395.686 80.9601 401.37 81.9555 407.078 82.8231C418.559 84.5613 430.105 85.7855 441.717 86.4956C441.788 86.506 441.859 86.5119 441.931 86.5135C455.049 87.3052 468.199 87.4331 481.33 86.8968C483.318 86.8165 485.296 86.7185 487.284 86.6026C495.565 86.139 503.825 85.4081 512.065 84.4098C519.686 83.4827 527.278 82.3329 534.839 80.9601C540.241 79.9796 545.622 78.8862 550.982 77.6798C551.243 77.6028 551.479 77.46 551.668 77.2651C551.857 77.0702 551.992 76.8299 552.061 76.5673C552.13 76.3048 552.13 76.0288 552.062 75.7662C551.993 75.5036 551.858 75.2632 551.669 75.0681V75.0681Z" fill="#E6E6E6"/>
<path id="Vector_2" d="M441.539 145.719C433.868 137.513 425.416 130.074 416.304 123.506C413.282 121.384 410.171 119.388 406.971 117.56C403.047 115.296 398.973 113.303 394.777 111.597C393.841 111.214 392.896 110.848 391.951 110.501C386.583 108.512 381.015 107.114 375.345 106.329C375.3 106.32 375.256 106.329 375.211 106.32C375.122 106.302 375.024 106.284 374.935 106.266C372.186 105.91 369.416 105.74 366.645 105.758C364.657 105.758 362.66 105.865 360.681 106.061C357.484 106.376 354.314 106.925 351.197 107.702C349.655 108.085 348.122 108.531 346.615 109.039C344.418 109.762 342.261 110.601 340.153 111.552C340.117 111.57 340.09 111.579 340.055 111.597C336.516 113.328 333.087 115.275 329.786 117.427C329.715 117.471 329.635 117.516 329.563 117.56C325.815 119.803 321.848 121.66 317.726 123.105C314.187 124.342 310.557 125.302 306.869 125.975C302.807 126.706 298.694 127.108 294.568 127.178C290.984 127.25 287.606 127.374 284.219 128.676C280.593 130.037 277.336 132.228 274.708 135.073C272.08 137.918 270.154 141.337 269.083 145.059C269 145.39 269.025 145.738 269.153 146.054C269.281 146.369 269.507 146.636 269.796 146.815C270.714 147.475 271.615 148.215 272.577 148.803C273.434 149.197 274.349 149.447 275.287 149.543C276.82 149.864 278.353 150.185 279.895 150.488C285.556 151.611 291.243 152.603 296.957 153.465C304.792 154.651 312.66 155.599 320.56 156.309C324.304 156.656 328.051 156.942 331.801 157.164C341.419 157.744 351.046 157.97 360.681 157.842C362.669 157.815 364.657 157.771 366.645 157.708C378.447 157.36 390.213 156.475 401.943 155.052C415.019 153.47 428.005 151.224 440.852 148.322C441.112 148.246 441.348 148.104 441.537 147.91C441.726 147.716 441.861 147.476 441.93 147.214C441.999 146.952 441.999 146.677 441.931 146.415C441.862 146.153 441.727 145.913 441.539 145.719V145.719Z" fill="#E6E6E6"/>
</g>
<g id="Group 9">
<g id="Group 8">
<path id="Vector_3" d="M588.759 12.0063C585.862 4.90349 579.702 -3.05176e-05 572.58 -3.05176e-05H275.777C265.873 -3.05176e-05 257.824 9.50187 257.824 21.1925V662.326C257.738 668.257 259.955 673.991 264.01 678.32C266.132 680.548 268.818 682.159 271.783 682.982C273.084 683.341 274.427 683.522 275.777 683.518H572.58C573.929 683.522 575.273 683.341 576.573 682.982C584.56 680.835 590.532 672.396 590.532 662.326V21.1925C590.541 18.0445 589.938 14.9248 588.759 12.0063V12.0063ZM584.578 662.326C584.578 670.133 579.194 676.489 572.58 676.489H275.777C270.295 676.489 265.651 672.122 264.233 666.177C263.93 664.916 263.778 663.623 263.779 662.326V21.1925C263.779 13.3847 269.163 7.03964 275.777 7.03964H572.58C573.797 7.03868 575.005 7.25607 576.146 7.68151C581.021 9.47037 584.578 14.8474 584.578 21.1925V662.326Z" fill="#CCCCCC"/>
<g id="Group 7">
<path id="Vector_4" d="M309.468 3.51782L356.147 648.574L262.789 656.86V11.7248C273.914 3.03516 289.883 1.67565 309.468 3.51782Z" fill="#CCCCCC"/>
<path id="Vector_5" d="M539.883 3.51782L493.204 648.574L586.562 656.86V11.7248C575.438 3.03516 559.469 1.67565 539.883 3.51782Z" fill="#CCCCCC"/>
<path id="Vector_6" d="M587.555 194.882H260.803V200.841H587.555V194.882Z" fill="#CCCCCC"/>
<path id="Vector_7" d="M587.555 71.8715H260.803V77.8305H587.555V71.8715Z" fill="#CCCCCC"/>
<path id="Vector_8" d="M587.555 294.199H260.803V300.158H587.555V294.199Z" fill="#CCCCCC"/>
<path id="Vector_9" d="M366.837 2.67413H360.878V378.618H366.837V2.67413Z" fill="#CCCCCC"/>
<path id="Vector_10" d="M487.48 2.67413H481.521V378.618H487.48V2.67413Z" fill="#CCCCCC"/>
<path id="Vector_11" d="M587.555 364.714H262.789V384.577H587.555V364.714Z" fill="#CCCCCC"/>
</g>
</g>
<g id="Group 6">
<path id="Vector_12" d="M624.797 646.276H233.49C226.381 646.285 219.566 649.112 214.539 654.139C209.513 659.165 206.685 665.98 206.677 673.089C206.673 676.507 207.33 679.894 208.611 683.064C210.602 688.035 214.035 692.296 218.469 695.299C222.903 698.302 228.135 699.908 233.49 699.911H624.797C629.478 699.909 634.077 698.682 638.136 696.352C642.196 694.022 645.575 690.67 647.937 686.629C648.61 685.487 649.194 684.295 649.684 683.064C650.965 679.894 651.622 676.507 651.619 673.089C651.608 665.98 648.779 659.164 643.751 654.138C638.723 649.112 631.907 646.284 624.797 646.276Z" fill="#CCCCCC"/>
<path id="Vector_13" d="M682.764 683.064C681.944 683.812 681.115 684.552 680.286 685.292C677.148 688.082 673.966 690.825 670.739 693.52C665.863 697.584 660.886 701.527 655.808 705.348H197.513C188.181 698.342 179.192 690.914 170.549 683.064H682.764Z" fill="#CCCCCC"/>
</g>
</g>
</g>
<g id="glava">
<path id="ab6171fa-7d69-4734-b81c-8dff60f9761b" d="M430.901 420.733C464.893 420.733 492.449 393.177 492.449 359.185C492.449 325.193 464.893 297.638 430.901 297.638C396.909 297.638 369.353 325.193 369.353 359.185C369.353 393.177 396.909 420.733 430.901 420.733Z" fill="#FFB8B8"/>
<path id="bf427902-b9bf-4946-b5d7-5c1c7e04535e" d="M362.243 299.976C362.708 292.908 367.382 285.675 382.233 281.896C382.233 281.896 407.718 249.306 442.351 266.397C442.351 266.397 459.14 263.508 471.59 280.928C471.59 280.928 483.934 273.648 489.141 286.552C489.141 286.552 503.618 312.872 498.288 339.719C492.959 366.566 490.231 369.916 490.231 369.916C490.231 369.916 497.024 314.384 457.896 318.235C418.767 322.085 387.265 308.325 378.404 338.453C371.046 363.469 371.973 376.462 371.973 376.462C371.973 376.462 347.368 351.506 355.734 331.854C360.012 321.803 361.525 310.876 362.243 299.976Z" fill="#2F2E41"/>
</g>
<path id="solja" d="M667.191 615.319H623.353C622.364 615.316 621.386 615.53 620.488 615.946C619.59 616.361 618.794 616.969 618.156 617.725C617.545 617.607 616.925 617.548 616.302 617.547C614.936 617.546 613.583 617.814 612.32 618.336C611.057 618.858 609.91 619.623 608.943 620.589C607.977 621.555 607.21 622.701 606.687 623.964C606.163 625.226 605.894 626.579 605.894 627.945C605.894 629.311 606.163 630.664 606.687 631.927C607.21 633.189 607.977 634.335 608.943 635.301C609.91 636.267 611.057 637.032 612.32 637.554C613.583 638.076 614.936 638.344 616.302 638.343C617.872 638.343 619.421 637.983 620.831 637.291L621.561 646.276L624.467 681.789C624.605 682.232 624.791 682.66 625.02 683.064C625.607 684.142 626.474 685.042 627.53 685.67C628.586 686.297 629.791 686.629 631.019 686.629H659.525C660.754 686.628 661.96 686.296 663.017 685.669C664.074 685.041 664.943 684.142 665.533 683.064C665.756 682.658 665.938 682.231 666.077 681.789L673.743 624.188C674.058 623.163 674.128 622.078 673.948 621.021C673.768 619.963 673.342 618.963 672.705 618.1C672.067 617.238 671.237 616.537 670.279 616.053C669.321 615.57 668.264 615.319 667.191 615.319ZM616.302 635.375C614.333 635.372 612.446 634.589 611.054 633.196C609.663 631.802 608.881 629.914 608.881 627.945C608.881 625.976 609.663 624.088 611.054 622.694C612.446 621.301 614.333 620.518 616.302 620.515C616.436 620.515 616.561 620.551 616.694 620.56C616.401 621.757 616.438 623.011 616.801 624.188L619.939 634.385C618.834 635.027 617.58 635.369 616.302 635.375V635.375Z" fill="#3F3D56"/>
<g id="komp">
<path id="Vector_14" d="M263.529 695.543H603.967C601.691 669.574 600.204 570.308 600.204 563.774C600.204 534.959 576.625 503.512 576.625 503.512L568.185 498.847L497.703 476.857L479.463 453.163C477.553 450.675 475.092 448.664 472.273 447.288C469.454 445.911 466.355 445.208 463.218 445.232L405.599 445.664C400.529 445.703 395.656 447.634 391.935 451.079L356.255 484.178L303.924 509.168L303.835 509.079L303.288 509.486L295.522 515.079L290.527 518.689C290.527 518.689 277.422 534.412 266.948 581.57C265.372 588.662 264.266 680.48 263.529 695.543Z" fill="#F9A826"/>
<path id="Vector_15" d="M514.774 688.412H346.303L349.868 671.476H511.208L514.774 688.412Z" fill="#2F2E41"/>
<path id="Vector_16" d="M568.177 426.854H290.672C288.287 426.858 286.002 427.806 284.316 429.492C282.63 431.178 281.681 433.464 281.678 435.848V623.109C281.68 625.494 282.628 627.78 284.314 629.466C286.001 631.153 288.287 632.101 290.672 632.103H568.177C570.561 632.101 572.848 631.153 574.534 629.466C576.22 627.78 577.168 625.494 577.171 623.109V435.848C577.167 433.464 576.218 431.178 574.532 429.492C572.846 427.806 570.561 426.858 568.177 426.854Z" fill="#3F3D56"/>
<path id="Vector_17" d="M460.676 576.9H395.757C394.838 576.901 393.958 577.267 393.309 577.918C392.661 578.568 392.297 579.449 392.298 580.367V682.921H464.143V580.367C464.144 579.912 464.054 579.461 463.88 579.04C463.706 578.619 463.45 578.237 463.128 577.915C462.806 577.593 462.424 577.338 462.003 577.164C461.582 576.989 461.131 576.9 460.676 576.9V576.9ZM428.435 635.17C426.404 635.16 424.46 634.35 423.025 632.914C421.589 631.478 420.778 629.534 420.769 627.504V615.675C420.771 613.644 421.58 611.696 423.017 610.26C424.455 608.824 426.403 608.018 428.435 608.018C430.466 608.018 432.415 608.824 433.852 610.26C435.29 611.696 436.098 613.644 436.101 615.675V627.504C436.091 629.534 435.28 631.478 433.845 632.914C432.409 634.35 430.465 635.16 428.435 635.17V635.17Z" fill="#2F2E41"/>
<path id="Vector_18" d="M392.075 679.641V689.535C392.076 690.048 392.28 690.539 392.643 690.902C393.005 691.264 393.497 691.468 394.01 691.469H462.432C462.944 691.467 463.435 691.262 463.797 690.9C464.159 690.538 464.364 690.047 464.366 689.535V679.641H392.075Z" fill="#3F3D56"/>
<path id="Vector_19" d="M357.322 683.955C370.122 683.955 380.498 673.579 380.498 660.779C380.498 647.979 370.122 637.603 357.322 637.603C344.522 637.603 334.146 647.979 334.146 660.779C334.146 673.579 344.522 683.955 357.322 683.955Z" fill="#FFB8B8"/>
<path id="Vector_20" d="M519.231 688.412C532.03 688.412 542.407 678.036 542.407 665.236C542.407 652.436 532.03 642.06 519.231 642.06C506.431 642.06 496.055 652.436 496.055 665.236C496.055 678.036 506.431 688.412 519.231 688.412Z" fill="#FFB8B8"/>
</g>
</g>
<defs>
<clipPath id="clip0_0_1">
<rect width="804.473" height="781.846" fill="white"/>
</clipPath>
</defs>
</svg>
